# xmcd
#
# Track frame offsets:
# 150
# 7948
# 24134
# 43849
# 51088
# 82251
# 94033
# 112414
# 134138
# 161870
# 179069
# 184415
# 201439
# 236571
# 242062
# 247206
# 266300
# 282723
# 303840
# 337736
#
# Disc length: 4754 seconds
#
#
# Revision: 0
# Processed by: cddbd v1.5.1PL2 Copyright (c) Steve Scherf et al.
# Submitted via: FreeRIP 2.944 
#
DISCID=2f129014
DTITLE=Joe Budden - Mood Musik II
DYEAR=2006
DGENRE=Hip-Hop
TTITLE0=Intro
TTITLE1=Are You In That Mood Yet?
TTITLE2=Old School Mouse
TTITLE3=Killa B.H. Skit Part 1
TTITLE4=6 Minutes of Death (feat. Jae Millz and Stack Bundles)
TTITLE5=So Serious
TTITLE6=Get It Poppin'
TTITLE7=The Future
TTITLE8=If I Die Tomorrow
TTITLE9=Young Niggas
TTITLE10=Phone Sex Interlude
TTITLE11=World Takeover
TTITLE12=Dumb Out
TTITLE13=Killa B.H. Skit Part 2
TTITLE14=Ghetto America (snippet)
TTITLE15=What's Up (feat. Newz and A-Team)
TTITLE16=40 Licks
TTITLE17=For A Reason
TTITLE18=Three Sides To A Story
TTITLE19=Stained
EXTD=
EXTT0=
EXTT1=
EXTT2=
EXTT3=
EXTT4=
EXTT5=
EXTT6=
EXTT7=
EXTT8=
EXTT9=
EXTT10=
EXTT11=
EXTT12=
EXTT13=
EXTT14=
EXTT15=
EXTT16=
EXTT17=
EXTT18=
EXTT19=
PLAYORDER=
